<?xml version="1.0" standalone="no"?>
<!DOCTYPE svg PUBLIC "-//W3C//DTD SVG 20010904//EN"
 "http://www.w3.org/TR/2001/REC-SVG-20010904/DTD/svg10.dtd">
<svg version="1.0" xmlns="http://www.w3.org/2000/svg"
 width="300.000000pt" height="222.000000pt" viewBox="0 0 300.000000 222.000000"
 preserveAspectRatio="xMidYMid meet">
<metadata>
Created by potrace 1.10, written by Peter Selinger 2001-2011
</metadata>
<g transform="translate(0.000000,222.000000) scale(0.100000,-0.100000)"
fill="#000000" stroke="none">
<path d="M297 2214 c-3 -4 0 -13 8 -21 13 -12 13 -19 0 -49 -8 -19 -10 -34 -6
-34 5 0 16 18 25 40 9 22 20 40 26 40 5 0 10 7 10 15 0 8 -4 15 -10 15 -5 0
-9 -3 -7 -7 1 -5 -2 -9 -8 -9 -5 -1 -9 2 -7 7 2 10 -21 12 -31 3z"/>
<path d="M460 2210 c-13 -8 -12 -10 3 -10 9 0 17 5 17 10 0 12 -1 12 -20 0z"/>
<path d="M491 2208 c0 -10 -6 -18 -12 -18 -5 0 -8 -4 -5 -9 10 -16 -28 -104
-59 -136 -16 -18 -57 -45 -90 -61 -33 -16 -62 -32 -65 -35 -7 -8 -195 -52
-230 -53 -17 -1 -30 -7 -30 -14 0 -8 17 -11 59 -10 32 2 57 6 54 11 -2 4 9 7
26 7 16 0 33 5 36 11 4 6 13 8 21 5 8 -3 14 -1 14 5 0 6 9 8 19 4 11 -3 25 1
34 9 11 11 17 12 27 3 10 -9 11 -9 6 1 -4 6 -2 12 4 12 6 0 8 5 4 12 -5 8 -2
9 11 4 14 -5 25 0 38 16 10 13 16 16 12 8 -5 -12 -4 -12 7 1 7 8 25 24 41 33
15 10 27 24 27 31 0 20 27 38 34 23 3 -7 4 0 2 16 -3 24 4 37 42 73 26 23 50
43 54 43 4 0 8 4 8 8 0 4 -15 8 -32 9 -27 2 -29 0 -13 -7 21 -9 21 -9 -12 -16
-14 -2 -23 2 -26 14 -4 16 -5 16 -6 0z"/>
<path d="M1930 2217 c0 -2 11 -31 24 -64 14 -33 30 -89 36 -124 14 -82 19
-237 9 -266 -6 -16 -5 -23 4 -23 7 0 13 8 14 18 1 9 4 52 7 96 8 91 -16 256
-42 296 -9 14 -15 29 -14 33 1 4 -5 10 -13 13 -8 3 -12 10 -9 15 3 5 0 9 -5 9
-6 0 -11 -1 -11 -3z"/>
<path d="M1998 2213 c7 -3 16 -2 19 1 4 3 -2 6 -13 5 -11 0 -14 -3 -6 -6z"/>
<path d="M1892 2195 c-11 -13 -10 -15 7 -15 14 0 19 5 15 15 -7 18 -6 18 -22
0z"/>
<path d="M1355 2190 c-5 -8 10 -45 25 -60 3 -3 6 -14 7 -25 0 -11 4 -31 7 -45
4 -21 14 -116 20 -185 1 -11 6 -29 12 -40 6 -11 9 -27 6 -35 -4 -12 -2 -13 10
-3 11 10 14 31 12 90 -5 120 -18 198 -33 195 -8 -2 -11 6 -9 21 1 13 -2 30 -9
38 -6 8 -12 18 -12 22 -1 15 -30 37 -36 27z"/>
<path d="M2020 2190 c0 -5 5 -10 11 -10 5 0 8 -4 5 -8 -3 -5 1 -26 8 -48 8
-21 17 -61 20 -87 4 -26 12 -71 18 -100 13 -64 15 -145 3 -172 -6 -15 -5 -17
4 -9 6 5 17 35 23 66 10 46 9 61 -4 89 -9 19 -19 65 -23 103 -4 38 -13 87 -21
109 -8 22 -12 42 -9 45 6 7 -15 32 -26 32 -5 0 -9 -4 -9 -10z"/>
<path d="M978 2183 c7 -3 16 -2 19 1 4 3 -2 6 -13 5 -11 0 -14 -3 -6 -6z"/>
<path d="M1431 2183 c-1 -7 5 -30 13 -50 24 -63 43 -218 46 -372 0 -8 3 -11 7
-7 4 4 6 25 4 46 -2 27 2 42 11 45 7 3 92 9 188 13 104 4 175 11 176 17 0 6 4
18 9 28 4 10 5 20 2 23 -11 11 -27 -8 -27 -32 0 -15 -6 -24 -15 -24 -8 0 -15
5 -15 10 0 6 5 10 10 10 6 0 10 7 10 15 0 9 -9 15 -22 14 -21 0 -21 -1 -4 -8
13 -5 16 -10 9 -14 -18 -11 -237 -26 -246 -18 -5 5 39 12 97 16 58 4 108 11
112 16 3 5 -8 7 -23 4 -15 -3 -77 -9 -136 -15 -93 -8 -112 -13 -129 -32 -11
-13 -16 -16 -12 -8 5 8 7 29 5 46 -2 32 -2 32 33 24 19 -4 38 -4 43 1 5 5 68
9 141 11 81 1 132 6 132 12 0 6 4 6 11 -1 11 -11 59 -5 59 7 0 5 -20 7 -45 6
-25 -1 -45 1 -45 6 0 4 5 8 10 8 6 0 10 5 10 10 0 7 -6 7 -19 0 -34 -18 -41
-11 -43 38 l-1 47 -4 -45 c-3 -25 -8 -48 -12 -53 -4 -4 -52 -9 -107 -12 -54
-3 -106 -6 -114 -7 -40 -4 -46 3 -58 66 -11 61 -59 185 -61 159z"/>
<path d="M1895 2160 c3 -5 8 -10 11 -10 2 0 4 5 4 10 0 6 -5 10 -11 10 -5 0
-7 -4 -4 -10z"/>
<path d="M1926 2153 c3 -13 1 -23 -5 -23 -6 0 -11 -5 -11 -11 0 -6 7 -9 15 -5
19 7 19 1 -1 -18 -8 -9 -12 -16 -7 -16 5 0 10 -13 11 -30 1 -16 7 -41 12 -55
6 -15 10 -41 10 -60 0 -39 9 -67 19 -60 4 2 4 32 -1 67 -4 35 -10 86 -13 115
-2 29 -11 67 -20 85 -8 18 -12 23 -9 11z"/>
<path d="M2105 2160 c4 -6 11 -8 16 -5 14 9 11 15 -7 15 -8 0 -12 -5 -9 -10z"/>
<path d="M1260 2153 c0 -4 5 -15 10 -23 8 -13 10 -13 10 2 0 9 -4 20 -10 23
-5 3 -10 3 -10 -2z"/>
<path d="M1801 2144 c0 -11 3 -14 6 -6 3 7 2 16 -1 19 -3 4 -6 -2 -5 -13z"/>
<path d="M1285 2110 c-3 -5 -1 -10 4 -10 6 0 11 5 11 10 0 6 -2 10 -4 10 -3 0
-8 -4 -11 -10z"/>
<path d="M245 2086 c-31 -29 -41 -32 -48 -13 -3 7 -6 5 -6 -5 -1 -10 -7 -18
-14 -18 -17 0 -80 -31 -74 -36 2 -2 30 5 63 16 57 19 123 64 112 76 -3 3 -18
-6 -33 -20z"/>
<path d="M400 2099 c0 -5 5 -7 10 -4 6 3 10 8 10 11 0 2 -4 4 -10 4 -5 0 -10
-5 -10 -11z"/>
<path d="M2106 2029 c16 -99 27 -117 19 -31 -5 56 -19 112 -28 112 -2 0 2 -37
9 -81z"/>
<path d="M1296 2068 c11 -56 28 -176 28 -205 1 -17 4 -29 9 -26 4 2 7 -2 7 -9
0 -10 2 -10 8 -1 13 21 -10 197 -29 219 -5 7 -8 17 -7 24 2 7 -2 14 -9 17 -8
3 -11 -3 -7 -19z"/>
<path d="M2130 2076 c0 -8 5 -18 10 -21 6 -3 10 3 10 14 0 12 -4 21 -10 21 -5
0 -10 -6 -10 -14z"/>
<path d="M1201 2044 c0 -11 3 -14 6 -6 3 7 2 16 -1 19 -3 4 -6 -2 -5 -13z"/>
<path d="M64 2015 c-17 -13 -17 -14 -2 -15 9 0 20 5 23 11 11 17 0 20 -21 4z"/>
<path d="M298 2018 c-16 -5 -28 -13 -28 -17 0 -14 35 -6 53 11 19 20 15 21
-25 6z"/>
<path d="M1203 1985 c0 -22 2 -30 4 -17 2 12 2 30 0 40 -3 9 -5 -1 -4 -23z"/>
<path d="M1257 2006 c-4 -9 -1 -32 7 -49 12 -30 12 -33 -6 -33 -11 0 -17 5
-13 14 2 7 0 10 -5 7 -6 -3 -10 -13 -10 -20 0 -17 34 -38 44 -27 4 3 4 -1 0
-11 -3 -9 -13 -17 -21 -17 -8 0 -13 -7 -11 -16 2 -8 8 -14 13 -12 6 2 9 6 8
11 -2 4 1 7 6 7 5 0 11 -3 14 -7 2 -5 2 -3 1 4 -2 7 1 15 6 18 10 6 5 42 -15
109 -9 29 -13 35 -18 22z"/>
<path d="M7 2003 c7 -2 19 -2 26 0 6 3 1 5 -13 5 -14 0 -19 -2 -13 -5z"/>
<path d="M2160 1981 c0 -20 5 -31 14 -31 9 0 12 8 8 25 -7 37 -22 41 -22 6z"/>
<path d="M213 1988 c3 -9 -1 -19 -9 -22 -22 -9 -26 -7 -18 5 5 8 1 8 -14 0
-11 -6 -30 -11 -41 -11 -10 0 -21 -5 -23 -11 -2 -5 -18 -11 -36 -11 -30 -1
-48 -18 -19 -18 30 0 133 22 142 31 5 5 20 9 33 9 13 0 21 4 18 9 -4 5 -3 11
1 14 5 2 2 2 -6 0 -8 -2 -19 2 -24 9 -6 10 -7 9 -4 -4z"/>
<path d="M2488 1983 c7 -3 16 -2 19 1 4 3 -2 6 -13 5 -11 0 -14 -3 -6 -6z"/>
<path d="M434 1967 c-18 -19 -54 -47 -60 -47 -3 0 -15 -11 -25 -24 -13 -16
-47 -33 -107 -51 -48 -15 -100 -31 -116 -36 -16 -5 -51 -9 -77 -9 -27 0 -49
-4 -49 -9 0 -15 118 0 198 25 39 12 74 18 77 14 3 -5 2 -11 -3 -14 -5 -3 -10
-31 -11 -62 -1 -32 -5 -63 -9 -68 -4 -6 -8 -22 -9 -36 -6 -83 -13 -150 -19
-185 -12 -73 -14 -99 -14 -167 0 -37 -4 -69 -8 -72 -5 -3 -7 -28 -4 -56 2 -28
0 -50 -5 -49 -20 3 -27 -2 -13 -11 13 -9 13 -11 0 -20 -12 -8 -12 -10 5 -10
20 -1 20 -1 0 -16 -16 -12 -17 -16 -6 -23 9 -6 10 -11 2 -15 -6 -4 -11 -12
-11 -17 0 -6 4 -7 10 -4 16 10 12 -7 -7 -27 -10 -12 -13 -22 -8 -26 14 -10 18
-52 6 -52 -6 0 -11 -11 -11 -24 0 -18 -7 -26 -22 -29 -20 -4 -20 -4 4 -6 23
-1 26 -5 25 -28 -1 -16 -11 -36 -22 -46 -20 -18 -20 -18 5 -11 25 7 25 7 6
-15 -13 -14 -15 -21 -6 -21 9 0 10 -3 1 -13 -8 -10 -7 -17 1 -25 8 -8 6 -15
-7 -28 -11 -12 -14 -19 -6 -22 6 -2 11 -8 11 -13 0 -6 -4 -7 -10 -4 -5 3 -10
-3 -10 -14 0 -12 6 -21 13 -21 8 0 7 -3 -3 -10 -9 -6 -14 -21 -12 -40 2 -17
-1 -30 -7 -30 -6 0 -11 -5 -11 -11 0 -6 7 -9 15 -5 16 6 21 -9 6 -18 -4 -3 -6
-16 -4 -29 4 -17 -2 -26 -21 -35 -14 -6 -26 -16 -26 -22 0 -6 7 -6 20 2 29 18
38 0 9 -20 -13 -9 -27 -16 -31 -14 -5 1 -8 -3 -8 -8 0 -6 11 -8 25 -4 25 6 35
-8 15 -21 -17 -11 -11 -23 9 -18 16 4 19 19 25 106 4 56 14 158 21 227 19 160
52 500 60 610 3 47 10 117 15 155 5 39 12 104 15 145 3 41 10 95 15 120 5 25
12 75 16 112 5 60 8 67 33 77 15 7 46 30 70 52 24 21 45 38 46 37 2 -2 -1 -30
-6 -63 -4 -33 -20 -145 -34 -250 -27 -201 -49 -351 -65 -450 -5 -33 -18 -134
-30 -225 -11 -91 -24 -192 -30 -225 -5 -33 -16 -109 -25 -170 -8 -60 -20 -137
-25 -170 -5 -33 -12 -80 -15 -105 -19 -146 -26 -200 -31 -237 -5 -29 -3 -43 5
-43 12 0 14 11 11 49 -1 13 2 21 7 18 5 -3 8 9 8 27 -1 18 4 72 12 122 7 49
15 107 18 129 3 22 7 51 10 65 8 45 26 164 30 209 3 25 9 60 15 79 5 19 7 39
4 44 -3 4 -2 8 3 8 4 0 9 32 10 71 1 47 6 75 15 80 7 5 8 9 2 9 -7 0 -8 17 -2
53 5 28 11 80 15 115 3 34 10 62 15 62 5 0 6 9 3 20 -4 13 -2 20 7 20 10 0 10
2 -1 9 -7 5 -10 14 -6 21 4 6 8 24 10 38 2 15 6 50 9 77 3 28 10 73 16 100 5
28 10 70 11 95 2 25 5 49 8 54 2 6 6 37 9 70 2 34 7 63 11 66 3 3 7 23 8 45 0
22 4 82 9 133 4 50 5 92 3 92 -2 -1 -9 -6 -15 -13z"/>
<path d="M1200 1899 c0 -24 4 -38 10 -34 6 3 10 1 10 -6 0 -7 2 -10 5 -7 9 8
-6 88 -16 88 -5 0 -9 -18 -9 -41z"/>
<path d="M5 1920 c-3 -5 -1 -10 4 -10 6 0 11 5 11 10 0 6 -2 10 -4 10 -3 0 -8
-4 -11 -10z"/>
<path d="M2192 1887 c-7 -8 -7 -18 -2 -27 10 -17 15 -13 24 18 8 24 -5 30 -22
9z"/>
<path d="M1200 1841 c0 -6 4 -13 10 -16 6 -3 7 1 4 9 -7 18 -14 21 -14 7z"/>
<path d="M1955 1820 c-4 -12 -5 -24 -2 -27 3 -2 8 5 12 17 4 12 5 24 2 27 -3
2 -8 -5 -12 -17z"/>
<path d="M1335 1800 c-3 -5 -1 -10 4 -10 6 0 11 5 11 10 0 6 -2 10 -4 10 -3 0
-8 -4 -11 -10z"/>
<path d="M2224 1785 c-4 -9 -2 -26 4 -38 7 -15 11 -17 12 -7 1 8 3 23 5 32 4
23 -13 34 -21 13z"/>
<path d="M1430 1765 c0 -8 5 -15 11 -15 6 0 8 -9 4 -22 -5 -20 -4 -21 5 -6 8
13 8 23 0 38 -13 24 -20 26 -20 5z"/>
<path d="M1961 1764 c0 -11 3 -14 6 -6 3 7 2 16 -1 19 -3 4 -6 -2 -5 -13z"/>
<path d="M327 1713 c-5 -8 20 -50 26 -42 2 2 -2 15 -9 27 -6 13 -14 20 -17 15z"/>
<path d="M1635 1710 c-3 -5 -2 -10 4 -10 5 0 13 5 16 10 3 6 2 10 -4 10 -5 0
-13 -4 -16 -10z"/>
<path d="M719 1699 c-10 -6 -7 -9 13 -9 14 0 29 -6 31 -12 4 -10 6 -10 6 -1 1
18 -32 33 -50 22z"/>
<path d="M1490 1700 c0 -5 5 -10 11 -10 5 0 7 5 4 10 -3 6 -8 10 -11 10 -2 0
-4 -4 -4 -10z"/>
<path d="M170 1680 c0 -5 7 -10 16 -10 8 0 12 5 9 10 -3 6 -10 10 -16 10 -5 0
-9 -4 -9 -10z"/>
<path d="M715 1670 c3 -4 14 -10 25 -13 11 -3 18 -2 15 3 -3 4 -14 10 -25 13
-11 3 -18 2 -15 -3z"/>
<path d="M2256 1671 c-4 -5 -2 -20 3 -33 10 -24 11 -23 27 30 4 14 -22 17 -30
3z"/>
<path d="M300 1659 c0 -5 5 -7 10 -4 6 3 10 8 10 11 0 2 -4 4 -10 4 -5 0 -10
-5 -10 -11z"/>
<path d="M1135 1660 c3 -5 8 -10 11 -10 2 0 4 5 4 10 0 6 -5 10 -11 10 -5 0
-7 -4 -4 -10z"/>
<path d="M65 1650 c3 -5 8 -10 11 -10 2 0 4 5 4 10 0 6 -5 10 -11 10 -5 0 -7
-4 -4 -10z"/>
<path d="M1200 1650 c0 -5 5 -10 11 -10 5 0 7 5 4 10 -3 6 -8 10 -11 10 -2 0
-4 -4 -4 -10z"/>
<path d="M1475 1639 c-4 -11 -4 -23 -1 -26 3 -4 6 1 6 10 0 8 5 17 12 19 9 3
9 6 1 11 -7 4 -14 -1 -18 -14z"/>
<path d="M90 1636 c0 -2 7 -7 16 -10 8 -3 12 -2 9 4 -6 10 -25 14 -25 6z"/>
<path d="M170 1600 c18 -12 30 -13 30 -2 0 4 -10 9 -22 9 -18 2 -20 0 -8 -7z"/>
<path d="M2290 1556 c0 -8 3 -22 6 -31 6 -14 8 -13 22 6 12 18 13 23 1 30 -20
13 -29 11 -29 -5z"/>
<path d="M300 1540 c0 -5 5 -10 10 -10 6 0 10 5 10 10 0 6 -4 10 -10 10 -5 0
-10 -4 -10 -10z"/>
<path d="M2640 1534 c-14 -8 -38 -14 -55 -15 -16 0 -24 -3 -17 -6 9 -3 4 -11
-16 -23 -17 -10 -33 -28 -37 -39 -3 -12 -10 -21 -14 -21 -5 0 -14 -21 -20 -46
-17 -66 6 -129 70 -195 27 -28 46 -55 43 -60 -3 -6 0 -10 7 -8 8 1 25 1 38 0
18 -1 21 -4 12 -14 -8 -11 -5 -13 19 -9 21 3 30 0 30 -9 0 -8 12 -15 28 -16
15 -1 59 -8 99 -14 49 -9 87 -10 119 -3 43 8 48 12 50 39 2 17 1 24 -2 18 -8
-19 -139 -16 -215 3 -87 22 -157 57 -200 98 -20 19 -39 33 -41 30 -3 -2 -11
14 -18 36 -7 22 -17 40 -22 40 -12 0 -2 53 18 100 27 62 118 110 209 110 50 0
199 -37 203 -50 2 -6 9 -10 16 -10 7 0 22 -9 34 -20 l22 -21 0 28 c0 20 -3 24
-9 14 -5 -8 -11 -9 -15 -3 -10 16 -78 48 -121 57 -22 5 -47 10 -55 11 -49 11
-138 10 -160 -2z m91 -429 c19 -8 27 -14 19 -14 -14 0 -72 28 -59 29 4 0 22
-7 40 -15z m137 -26 c26 -1 30 -3 13 -6 -34 -7 -113 6 -106 17 3 6 16 5 31 0
14 -6 42 -11 62 -11z m69 -5 c-3 -3 -12 -4 -19 -1 -8 3 -5 6 6 6 11 1 17 -2
13 -5z"/>
<path d="M1285 1510 c3 -5 8 -10 11 -10 2 0 4 5 4 10 0 6 -5 10 -11 10 -5 0
-7 -4 -4 -10z"/>
<path d="M1408 1513 c7 -3 16 -2 19 1 4 3 -2 6 -13 5 -11 0 -14 -3 -6 -6z"/>
<path d="M1318 1503 c6 -2 18 -2 25 0 6 3 1 5 -13 5 -14 0 -19 -2 -12 -5z"/>
<path d="M2818 1463 c7 -3 16 -2 19 1 4 3 -2 6 -13 5 -11 0 -14 -3 -6 -6z"/>
<path d="M271 1434 c0 -11 3 -14 6 -6 3 7 2 16 -1 19 -3 4 -6 -2 -5 -13z"/>
<path d="M1490 1440 c-13 -8 -13 -10 2 -10 9 0 20 5 23 10 8 13 -5 13 -25 0z"/>
<path d="M2330 1426 c0 -8 3 -22 6 -31 5 -13 8 -14 15 -3 14 21 10 48 -6 48
-8 0 -15 -6 -15 -14z"/>
<path d="M1474 1416 c24 -19 32 -20 42 -4 4 7 3 8 -4 4 -6 -4 -22 -2 -34 4
-22 11 -22 10 -4 -4z"/>
<path d="M2608 1423 c7 -3 16 -2 19 1 4 3 -2 6 -13 5 -11 0 -14 -3 -6 -6z"/>
<path d="M2556 1404 c-11 -7 -18 -16 -15 -18 2 -2 13 2 23 10 11 7 18 16 15
18 -2 2 -13 -2 -23 -10z"/>
<path d="M100 1401 c0 -6 4 -13 10 -16 6 -3 7 1 4 9 -7 18 -14 21 -14 7z"/>
<path d="M2845 1400 c-3 -5 1 -10 9 -10 9 0 16 5 16 10 0 6 -4 10 -9 10 -6 0
-13 -4 -16 -10z"/>
<path d="M260 1389 c0 -5 5 -7 10 -4 6 3 10 8 10 11 0 2 -4 4 -10 4 -5 0 -10
-5 -10 -11z"/>
<path d="M320 1386 c0 -9 5 -16 10 -16 6 0 10 4 10 9 0 6 -4 13 -10 16 -5 3
-10 -1 -10 -9z"/>
<path d="M2590 1390 c-8 -5 -10 -10 -5 -10 6 0 17 5 25 10 8 5 11 10 5 10 -5
0 -17 -5 -25 -10z"/>
<path d="M2633 1387 c-3 -6 -1 -7 5 -3 7 4 12 3 12 -2 0 -6 9 -8 20 -5 11 3
20 8 20 12 0 11 -50 9 -57 -2z"/>
<path d="M2904 1385 c-3 -8 -4 -20 -1 -27 3 -7 6 -3 6 9 1 12 7 24 14 26 9 4
9 6 -1 6 -7 1 -15 -6 -18 -14z"/>
<path d="M2701 1378 c-1 -22 -48 -58 -66 -52 -8 3 -22 0 -32 -6 -16 -10 -16
-11 5 -7 15 4 27 -2 38 -16 l16 -22 -5 21 c-3 16 2 25 18 32 27 13 40 5 23
-15 -6 -7 -8 -17 -4 -20 4 -4 11 -1 15 6 5 7 11 9 13 5 3 -5 3 -2 0 6 -3 8 -8
31 -12 50 -4 19 -8 27 -9 18z"/>
<path d="M2972 1375 c-8 -10 -9 -15 -2 -15 7 0 9 -8 5 -20 -5 -14 -3 -18 8
-15 15 7 19 35 4 35 -5 0 -4 7 3 15 16 19 -1 19 -18 0z"/>
<path d="M760 1371 c0 -10 19 -25 25 -20 1 2 -3 10 -11 17 -8 7 -14 8 -14 3z"/>
<path d="M2602 1368 c-16 -16 -15 -28 3 -28 8 0 15 9 15 20 0 23 -2 24 -18 8z"/>
<path d="M2768 1373 c7 -3 16 -2 19 1 4 3 -2 6 -13 5 -11 0 -14 -3 -6 -6z"/>
<path d="M2810 1376 c0 -2 7 -7 16 -10 8 -3 12 -2 9 4 -6 10 -25 14 -25 6z"/>
<path d="M2550 1360 c0 -5 7 -7 15 -4 8 4 15 8 15 10 0 2 -7 4 -15 4 -8 0 -15
-4 -15 -10z"/>
<path d="M1365 1348 c-27 -4 -58 -5 -69 -2 -13 5 -16 3 -11 -7 6 -9 4 -11 -8
-6 -9 3 -19 2 -22 -4 -4 -5 -11 -7 -16 -4 -5 4 -12 -1 -15 -9 -8 -22 -72 -38
-96 -25 -11 6 -32 7 -46 3 -15 -4 -32 -6 -39 -5 -6 1 -14 -3 -18 -9 -3 -6 3
-10 15 -10 17 0 20 -4 15 -20 -4 -12 -1 -28 7 -37 11 -14 11 -16 -3 -11 -11 4
-20 -2 -28 -19 -7 -14 -14 -23 -18 -20 -3 4 -14 -10 -24 -30 -10 -20 -17 -38
-15 -40 1 -2 30 23 63 54 88 84 123 109 197 144 120 56 270 52 321 -10 21 -26
43 -76 44 -101 1 -16 -61 -55 -88 -55 -9 0 -17 -10 -19 -23 -2 -12 -8 -20 -13
-16 -5 3 -7 10 -3 15 9 15 -38 -13 -57 -33 -9 -10 -19 -14 -23 -11 -4 4 -11 1
-15 -6 -7 -10 -13 -10 -29 -2 -31 16 -70 13 -81 -6 -10 -17 -10 -17 -11 1 0
15 -3 16 -15 6 -11 -9 -12 -17 -4 -31 10 -19 10 -19 31 1 29 27 55 25 60 -4 4
-18 -2 -27 -21 -38 -33 -18 -66 -17 -67 2 -1 28 -16 51 -31 46 -9 -4 -12 -1
-7 7 4 7 3 9 -2 4 -5 -5 -9 -14 -9 -19 0 -6 -6 -13 -14 -16 -9 -3 -11 0 -6 8
6 10 4 11 -11 5 -10 -4 -31 -7 -45 -6 -22 1 -26 -2 -22 -21 4 -21 11 -23 69
-25 69 -2 175 -28 186 -46 4 -7 6 -2 6 10 -1 11 -7 19 -13 17 -5 -2 -17 1 -25
6 -13 9 -13 11 0 20 22 14 26 13 49 -16 16 -21 19 -30 10 -41 -10 -11 -8 -12
6 -7 12 5 16 4 12 -3 -4 -6 0 -14 9 -17 8 -3 12 -10 9 -16 -3 -5 3 -10 14 -10
10 0 21 -6 24 -12 2 -7 7 -10 11 -7 3 3 -23 43 -59 89 -36 46 -65 87 -65 92 0
16 19 8 22 -9 3 -16 6 -16 23 4 10 12 22 20 26 17 4 -2 17 7 28 22 14 18 26
24 39 20 20 -7 38 17 26 35 -3 5 -1 9 5 9 5 0 11 -6 13 -12 3 -9 9 -8 22 5 10
9 26 17 37 17 14 0 20 9 25 40 5 30 11 40 25 40 12 0 16 5 13 15 -4 11 -2 13
9 10 12 -5 34 22 25 30 -9 8 -48 -17 -48 -30 0 -8 -4 -15 -10 -15 -5 0 -9 3
-8 8 2 6 -10 21 -79 94 -9 10 -20 15 -25 12 -5 -3 -16 0 -24 7 -18 15 -53 17
-119 7z m-245 -84 c11 -12 10 -18 -3 -32 -16 -15 -18 -15 -33 0 -19 18 -12 48
9 48 8 0 20 -7 27 -16z m98 -267 c8 -9 -1 -13 -44 -15 -30 -2 -54 1 -54 6 0 4
16 7 35 6 19 -2 37 1 40 6 8 13 10 13 23 -3z"/>
<path d="M2630 1356 c0 -2 7 -6 15 -10 8 -3 15 -1 15 4 0 6 -7 10 -15 10 -8 0
-15 -2 -15 -4z"/>
<path d="M2770 1350 c-11 -7 -12 -14 -4 -27 15 -24 61 -38 79 -23 20 16 9 37
-27 49 -36 13 -30 13 -48 1z m65 -31 c5 -5 -5 -4 -23 2 -17 6 -32 13 -32 16 0
7 43 -8 55 -18z"/>
<path d="M2926 1344 c-11 -7 -18 -16 -15 -18 2 -2 13 2 23 10 11 7 18 16 15
18 -2 2 -13 -2 -23 -10z"/>
<path d="M1045 1340 c4 -6 11 -8 16 -5 14 9 11 15 -7 15 -8 0 -12 -5 -9 -10z"/>
<path d="M1180 1343 c0 -7 -10 -13 -22 -13 -29 0 -14 -13 17 -15 27 -1 29 3
15 25 -6 10 -10 11 -10 3z"/>
<path d="M1090 1330 c-12 -8 -11 -10 8 -10 12 0 22 5 22 10 0 13 -11 13 -30 0z"/>
<path d="M2555 1331 c-6 -11 13 -26 22 -17 4 3 1 6 -6 6 -7 0 -9 5 -6 10 3 6
4 10 1 10 -3 0 -7 -4 -11 -9z"/>
<path d="M2370 1299 c0 -27 19 -34 35 -13 20 27 18 32 -10 32 -17 0 -25 -6
-25 -19z"/>
<path d="M2922 1311 c-11 -7 -10 -10 3 -15 22 -8 22 -8 22 9 0 17 -6 18 -25 6z"/>
<path d="M150 1289 c0 -5 5 -7 10 -4 6 3 10 8 10 11 0 2 -4 4 -10 4 -5 0 -10
-5 -10 -11z"/>
<path d="M1385 1282 c-40 -6 -141 -45 -164 -63 -13 -10 -27 -16 -32 -13 -5 3
-9 0 -9 -6 0 -6 -5 -8 -12 -4 -7 4 -8 3 -4 -4 4 -7 2 -12 -3 -12 -6 0 -30 -18
-52 -40 -23 -22 -45 -40 -49 -40 -4 0 -13 -7 -20 -15 -10 -12 -10 -15 0 -15
12 0 97 64 110 82 5 6 36 24 115 65 11 6 31 15 45 21 14 5 38 15 53 21 34 14
110 14 157 1 32 -9 33 -8 16 5 -11 8 -31 16 -45 17 -60 3 -87 3 -106 0z"/>
<path d="M1815 1280 c-3 -5 -1 -10 4 -10 6 0 11 5 11 10 0 6 -2 10 -4 10 -3 0
-8 -4 -11 -10z"/>
<path d="M1835 1264 c-24 -28 -33 -30 -31 -8 0 9 -4 19 -10 21 -6 2 -8 -11 -5
-34 2 -21 6 -32 8 -25 3 6 11 12 19 12 8 0 17 7 20 15 4 8 12 15 20 15 8 0 14
4 14 9 0 20 -16 18 -35 -5z"/>
<path d="M1892 1265 c-13 -28 -2 -34 18 -10 9 11 10 19 3 26 -6 6 -13 1 -21
-16z"/>
<path d="M1760 1268 c0 -9 -5 -20 -12 -24 -8 -5 -9 -2 -5 9 4 11 1 17 -8 17
-20 0 -19 -27 0 -47 18 -17 17 -17 35 16 8 17 9 26 1 34 -8 8 -11 6 -11 -5z"/>
<path d="M407 1255 c-6 -15 10 -32 20 -21 4 3 1 6 -5 6 -6 0 -9 7 -6 15 4 8 4
15 1 15 -3 0 -7 -7 -10 -15z"/>
<path d="M2695 1260 c-3 -6 1 -7 9 -4 18 7 21 14 7 14 -6 0 -13 -4 -16 -10z"/>
<path d="M1179 1243 c-12 -16 -12 -17 1 -7 8 6 22 14 30 17 13 5 12 6 -1 6 -9
1 -23 -7 -30 -16z"/>
<path d="M1979 1256 c-1 -3 -2 -12 -3 -18 0 -7 -10 -14 -20 -16 -22 -5 -51
-30 -43 -38 3 -3 19 2 36 10 36 19 45 20 35 4 -5 -8 -2 -9 10 -5 10 4 27 7 39
7 18 0 19 2 7 10 -8 5 -23 7 -32 4 -19 -6 -26 12 -7 18 7 2 5 9 -5 17 -9 7
-17 11 -17 7z"/>
<path d="M2319 1238 c-6 -27 -5 -28 36 -28 32 0 45 5 50 18 5 14 4 15 -6 5 -7
-7 -25 -13 -40 -13 -21 0 -28 6 -31 23 -3 20 -4 20 -9 -5z"/>
<path d="M2615 1250 c3 -5 8 -10 11 -10 2 0 4 5 4 10 0 6 -5 10 -11 10 -5 0
-7 -4 -4 -10z"/>
<path d="M300 1239 c0 -5 5 -7 10 -4 6 3 10 8 10 11 0 2 -4 4 -10 4 -5 0 -10
-5 -10 -11z"/>
<path d="M1689 1248 c0 -2 -3 -16 -5 -31 -4 -21 -1 -28 8 -25 15 5 22 58 7 58
-5 0 -9 -1 -10 -2z"/>
<path d="M1909 1230 c-13 -10 -20 -19 -16 -20 5 0 15 7 24 15 8 8 19 13 24 10
5 -4 9 -1 9 4 0 16 -15 13 -41 -9z"/>
<path d="M2630 1208 c25 -24 98 -57 162 -74 41 -10 48 -10 48 2 0 9 -4 13 -9
9 -12 -7 -101 17 -101 27 0 4 -8 8 -19 8 -10 0 -29 10 -43 23 -13 12 -33 23
-42 24 -15 1 -15 -2 4 -19z"/>
<path d="M32 1203 c2 -9 10 -18 18 -20 13 -4 13 -3 0 6 -13 10 -13 12 0 21 13
8 12 10 -3 10 -12 0 -17 -6 -15 -17z"/>
<path d="M2190 1208 c0 -6 -16 -8 -35 -6 -19 2 -35 0 -35 -4 0 -11 91 -10 108
1 10 6 7 10 -12 13 -14 3 -26 1 -26 -4z"/>
<path d="M2698 1213 c7 -3 16 -2 19 1 4 3 -2 6 -13 5 -11 0 -14 -3 -6 -6z"/>
<path d="M410 1199 c0 -5 5 -7 10 -4 6 3 10 8 10 11 0 2 -4 4 -10 4 -5 0 -10
-5 -10 -11z"/>
<path d="M537 1203 c-4 -3 -7 -11 -7 -17 0 -6 5 -5 12 2 6 6 9 14 7 17 -3 3
-9 2 -12 -2z"/>
<path d="M747 1203 c-4 -3 -7 -11 -7 -17 0 -6 5 -5 12 2 6 6 9 14 7 17 -3 3
-9 2 -12 -2z"/>
<path d="M946 1195 c-3 -8 -1 -15 4 -15 6 0 10 7 10 15 0 8 -2 15 -4 15 -2 0
-6 -7 -10 -15z"/>
<path d="M2060 1202 c0 -4 -14 -13 -32 -20 -17 -6 -28 -15 -24 -19 8 -8 76 26
76 39 0 4 -4 8 -10 8 -5 0 -10 -4 -10 -8z"/>
<path d="M240 1189 c0 -5 5 -7 10 -4 6 3 10 8 10 11 0 2 -4 4 -10 4 -5 0 -10
-5 -10 -11z"/>
<path d="M1521 1184 c0 -11 3 -14 6 -6 3 7 2 16 -1 19 -3 4 -6 -2 -5 -13z"/>
<path d="M1635 1189 c-4 -6 -5 -12 -2 -15 2 -3 7 2 10 11 7 17 1 20 -8 4z"/>
<path d="M1244 1174 c4 -11 -3 -19 -24 -27 -16 -6 -30 -15 -30 -19 0 -5 14 -1
31 8 30 15 31 15 26 -1 -4 -9 -3 -14 3 -10 11 7 13 -6 4 -29 -3 -9 -10 -13
-15 -10 -5 3 -8 0 -7 -7 2 -6 -3 -14 -11 -17 -8 -2 -11 0 -7 6 3 5 -1 13 -10
16 -24 9 -31 7 -14 -4 13 -8 12 -10 -3 -10 -10 0 -16 -4 -12 -9 3 -5 -3 -12
-12 -14 -10 -3 -1 -4 20 -3 23 2 47 12 63 27 14 14 28 19 32 14 4 -6 12 -11
19 -12 7 -2 1 14 -12 34 -14 19 -25 46 -25 59 0 13 -5 24 -11 24 -6 0 -8 -7
-5 -16z"/>
<path d="M2080 1160 c-34 -26 -17 -37 26 -17 22 11 32 21 28 29 -6 9 -9 9 -12
-1 -3 -9 -7 -10 -11 -3 -4 7 -15 4 -31 -8z"/>
<path d="M5 1160 c-3 -6 1 -7 9 -4 18 7 21 14 7 14 -6 0 -13 -4 -16 -10z"/>
<path d="M70 1159 c0 -5 5 -7 10 -4 6 3 10 8 10 11 0 2 -4 4 -10 4 -5 0 -10
-5 -10 -11z"/>
<path d="M2412 1148 c2 -23 5 -25 45 -20 35 4 43 2 43 -12 0 -12 -10 -16 -42
-16 -32 -1 -39 -3 -27 -10 16 -10 38 -8 74 6 18 7 19 6 6 -10 -33 -40 50 -65
103 -31 24 16 26 20 11 25 -9 3 -15 10 -14 15 1 6 -20 10 -47 10 -42 0 -49 3
-52 21 -2 15 -12 24 -30 27 -15 3 -37 8 -49 12 -20 6 -23 4 -21 -17z m193 -78
c4 -6 -12 -10 -39 -10 -25 0 -46 5 -46 10 0 6 18 10 39 10 22 0 43 -4 46 -10z"/>
<path d="M107 1149 c7 -7 15 -10 18 -7 3 3 -2 9 -12 12 -14 6 -15 5 -6 -5z"/>
<path d="M285 1150 c3 -5 8 -10 11 -10 2 0 4 5 4 10 0 6 -5 10 -11 10 -5 0 -7
-4 -4 -10z"/>
<path d="M2155 1153 c-26 -7 -63 -33 -47 -33 17 0 82 27 82 34 0 6 -5 6 -35
-1z"/>
<path d="M2915 1139 c-16 -11 -23 -19 -15 -19 16 1 56 27 49 34 -2 2 -17 -5
-34 -15z"/>
<path d="M395 1140 c-4 -6 7 -10 27 -9 27 0 30 2 13 9 -27 12 -33 12 -40 0z"/>
<path d="M2856 1135 c-3 -9 0 -15 8 -15 7 0 13 7 13 15 0 8 -4 15 -8 15 -4 0
-9 -7 -13 -15z"/>
<path d="M265 1130 c-3 -5 -1 -10 4 -10 6 0 11 5 11 10 0 6 -2 10 -4 10 -3 0
-8 -4 -11 -10z"/>
<path d="M2202 1125 c-7 -8 -23 -15 -35 -16 -21 0 -21 -1 -2 -9 28 -12 75 -12
75 0 0 6 -7 10 -15 10 -9 0 -12 6 -9 15 8 19 3 19 -14 0z"/>
<path d="M235 1110 c-3 -5 -1 -10 4 -10 6 0 11 5 11 10 0 6 -2 10 -4 10 -3 0
-8 -4 -11 -10z"/>
<path d="M1190 1110 l-25 -8 27 -1 c15 -1 30 4 33 9 7 11 0 11 -35 0z"/>
<path d="M270 1100 c-8 -5 -12 -11 -9 -14 2 -3 11 -1 19 4 8 5 12 11 9 14 -2
3 -11 1 -19 -4z"/>
<path d="M1410 1095 c-7 -9 -8 -15 -2 -15 5 0 12 7 16 15 3 8 4 15 2 15 -2 0
-9 -7 -16 -15z"/>
<path d="M2243 1075 c-7 -21 -2 -25 25 -19 18 5 19 8 7 20 -18 18 -24 18 -32
-1z"/>
<path d="M1130 1070 c0 -5 4 -10 9 -10 6 0 13 5 16 10 3 6 -1 10 -9 10 -9 0
-16 -4 -16 -10z"/>
<path d="M1006 1038 c-3 -13 -5 -25 -5 -27 0 -2 -4 -7 -9 -10 -13 -9 -25 -51
-14 -51 8 0 9 -14 4 -72 -1 -11 -10 -18 -22 -18 -11 0 -20 -4 -20 -10 0 -5 8
-7 18 -4 14 5 14 3 -2 -10 -12 -10 -15 -16 -7 -16 9 0 12 -10 9 -30 -3 -16 -1
-30 3 -30 4 0 6 -18 4 -40 -2 -27 0 -39 8 -37 7 1 11 -9 10 -25 -1 -21 2 -26
17 -23 10 2 24 -3 31 -11 6 -8 18 -14 25 -14 8 0 14 -7 14 -15 0 -8 7 -15 15
-15 8 0 15 -7 15 -15 0 -8 5 -15 10 -15 6 0 10 5 10 11 0 7 14 8 43 3 23 -4
48 -7 55 -7 8 0 10 -8 6 -21 -3 -12 9 -1 27 24 18 25 39 51 46 58 7 7 13 16
13 20 0 4 12 21 26 37 14 17 33 39 43 50 9 11 37 37 62 57 36 30 48 35 58 25
10 -9 11 -8 5 8 -4 11 -4 17 1 13 4 -4 15 0 24 10 23 26 114 69 176 83 61 14
113 6 144 -20 21 -18 21 -19 1 -24 -11 -3 -23 -1 -26 4 -14 23 -113 2 -224
-49 -68 -31 -230 -178 -230 -209 0 -8 -4 -12 -8 -9 -5 3 -14 -10 -20 -29 -5
-19 -7 -35 -2 -35 9 0 24 31 21 44 -1 5 5 6 14 3 10 -5 15 0 15 15 0 36 135
158 220 201 59 28 76 33 78 22 2 -8 7 -15 12 -15 5 0 7 7 4 15 -5 11 -2 13 12
8 13 -5 15 -3 9 7 -6 10 -4 12 7 7 9 -3 19 -3 23 1 4 4 32 7 63 7 47 0 59 -4
68 -21 12 -22 12 -53 1 -71 -5 -7 -3 -22 3 -33 6 -12 9 -26 7 -33 -3 -7 -10 3
-17 21 -9 25 -17 32 -29 26 -9 -3 -26 -8 -38 -9 -40 -6 -132 -35 -138 -45 -3
-6 -11 -10 -17 -10 -6 0 -5 7 3 17 8 9 -8 0 -35 -20 -27 -20 -55 -37 -62 -37
-7 0 -36 -27 -66 -61 -80 -91 -108 -153 -31 -69 l37 40 31 -19 c24 -14 32 -15
32 -5 0 8 -6 14 -14 14 -7 0 -13 5 -13 11 0 7 9 9 21 6 14 -4 35 6 66 29 49
37 101 45 124 18 10 -13 10 -17 -2 -25 -37 -25 -69 -39 -69 -30 0 6 14 17 30
26 17 9 30 20 30 25 0 15 -16 12 -33 -5 -8 -8 -17 -12 -20 -9 -9 10 -77 -25
-77 -39 0 -8 -7 -21 -17 -28 -18 -15 -93 -19 -93 -5 0 5 -10 -4 -22 -20 -12
-16 -25 -31 -28 -34 -3 -3 -6 -17 -7 -32 0 -19 3 -25 13 -21 8 3 14 -1 14 -11
0 -39 99 -47 153 -11 23 15 25 19 12 32 -18 18 -20 44 -2 37 19 -8 78 -85 72
-95 -3 -4 -15 -4 -27 0 -15 5 -41 1 -77 -11 -59 -21 -103 -18 -132 8 -14 12
-17 13 -22 1 -11 -30 144 -56 190 -32 15 8 37 15 48 15 12 0 26 5 33 12 9 9
12 9 12 -2 0 -8 12 -28 25 -43 28 -32 56 -30 87 7 19 23 24 66 7 66 -6 0 -8 7
-5 15 5 13 1 12 -18 -2 -21 -16 -22 -19 -8 -24 10 -4 20 -5 25 -2 4 2 7 0 7
-4 0 -10 -53 -43 -70 -43 -7 0 -10 7 -6 16 3 8 2 12 -4 9 -6 -3 -10 -1 -10 6
0 6 -10 21 -22 33 -21 19 -53 75 -46 81 2 1 13 7 25 14 18 9 23 8 28 -9 3 -11
11 -20 16 -20 6 0 7 -5 4 -10 -3 -6 2 -10 11 -10 10 0 15 -3 11 -6 -3 -4 1
-13 9 -22 11 -11 18 -12 27 -3 8 8 5 17 -13 36 l-23 24 37 43 c20 24 41 49 47
56 8 10 38 17 62 13 4 0 7 4 7 9 0 6 11 15 25 20 14 5 25 14 25 20 0 5 6 10
13 10 7 0 21 11 31 25 10 14 27 25 36 25 16 0 27 18 60 95 17 42 18 54 5 72
-18 22 -19 60 -3 65 12 4 3 28 -12 28 -8 0 -25 -41 -21 -49 2 -2 -3 -8 -11
-12 -11 -7 -10 -11 2 -19 12 -8 8 -10 -15 -11 l-30 -1 28 -11 c38 -15 34 -28
-8 -25 -41 2 -45 -1 -34 -27 7 -18 8 -18 8 -1 1 13 6 16 19 11 9 -4 26 -7 37
-7 16 1 17 -1 5 -8 -8 -5 -10 -10 -5 -10 18 -1 -39 -29 -60 -30 -15 0 -16 -3
-7 -12 9 -9 15 -9 24 0 19 19 37 14 33 -9 -3 -12 -7 -24 -11 -28 -4 -3 -4 2
-1 12 10 28 -11 19 -51 -21 -46 -48 -106 -92 -125 -92 -8 0 -24 -10 -36 -22
-55 -61 -71 -80 -71 -89 0 -5 -4 -9 -10 -9 -5 0 -10 9 -10 19 0 29 -17 35 -46
16 -13 -9 -30 -13 -37 -9 -7 4 -9 4 -5 -1 11 -12 -32 -39 -43 -28 -6 6 0 20
17 37 27 26 70 44 81 33 3 -3 12 0 20 8 8 8 25 15 39 15 32 0 55 54 43 100 -2
9 2 14 9 12 8 -1 11 2 7 7 -3 6 -12 8 -19 5 -8 -3 -17 -1 -21 5 -3 6 -18 11
-33 12 -24 1 -24 2 8 10 53 15 55 15 59 4 2 -5 10 -15 18 -20 11 -8 12 -17 4
-39 -6 -15 -8 -32 -5 -37 3 -6 0 -16 -6 -24 -8 -10 -9 -15 -2 -15 17 0 42 42
42 70 0 15 7 48 17 75 31 91 -14 180 -103 205 -104 29 -283 -47 -422 -179 -30
-28 -59 -48 -64 -44 -7 3 -8 1 -4 -6 4 -6 -4 -25 -18 -42 -14 -17 -29 -41 -32
-54 -7 -30 -39 -38 -114 -29 -47 5 -60 11 -71 30 -7 13 -18 24 -24 24 -21 0
-66 42 -61 56 3 7 0 16 -5 20 -12 7 -7 152 5 172 4 7 4 32 0 57 -3 25 -3 45 1
45 5 0 24 -12 43 -26 l34 -27 -17 27 c-10 15 -13 26 -6 26 6 0 11 5 11 11 0 6
-9 9 -19 6 -10 -2 -25 -1 -32 4 -11 7 -9 13 11 29 24 19 24 20 4 20 -14 0 -24
-8 -28 -22z m704 -360 c0 -9 3 -9 12 0 7 7 26 12 43 12 l30 -1 -28 -24 c-23
-20 -32 -23 -48 -15 -13 7 -19 7 -19 0 0 -5 -4 -10 -10 -10 -5 0 -7 8 -3 18 4
13 1 12 -16 -6 -12 -12 -27 -20 -32 -16 -5 3 5 16 23 29 38 27 48 30 48 13z
m88 -25 c-15 -15 -30 -24 -34 -20 -7 7 35 46 51 47 5 0 -3 -12 -17 -27z m-178
-13 c0 -6 -15 -19 -32 -30 -18 -11 -27 -20 -20 -20 6 0 12 -5 12 -11 0 -8 -5
-8 -15 1 -12 10 -18 10 -30 0 -10 -9 -15 -9 -15 -1 0 6 4 11 9 11 4 0 22 14
39 30 32 31 52 38 52 20z m210 2 c0 -9 -44 -32 -58 -32 -9 1 41 39 51 40 4 0
7 -4 7 -8z m-210 -37 c-7 -8 -18 -15 -24 -15 -6 0 -2 7 8 15 25 19 32 19 16 0z
m203 9 c-7 -3 -9 -12 -6 -20 3 -9 -2 -14 -16 -14 -12 0 -21 4 -21 10 0 10 30
30 45 29 6 0 5 -3 -2 -5z m-169 -50 c18 -7 12 -24 -10 -24 -8 0 -14 7 -14 15
0 17 2 18 24 9z m-32 -60 c-4 -21 -40 -64 -54 -64 -4 0 -8 7 -8 16 0 8 -5 12
-11 8 -8 -4 -8 0 0 15 14 25 22 28 15 4 -5 -16 -4 -16 8 -2 7 8 22 19 33 23
16 6 17 9 5 17 -13 9 -13 10 0 6 8 -2 14 -13 12 -23z m-82 -4 c0 -5 -5 -10
-10 -10 -6 0 -10 -7 -8 -16 2 -10 -3 -19 -10 -21 -6 -3 -10 1 -9 9 2 7 2 10 0
6 -9 -16 -32 -8 -26 8 9 23 63 44 63 24z m-46 -65 c-4 -8 -1 -15 5 -15 6 0 11
5 11 11 0 5 5 7 12 3 8 -5 6 -11 -5 -19 -27 -19 -20 -29 8 -11 29 19 41 21 29
3 -5 -7 -2 -5 8 5 16 18 39 23 51 11 11 -10 -13 -32 -29 -26 -8 3 -14 0 -14
-6 0 -6 -12 -10 -27 -10 -47 2 -65 10 -59 25 3 8 -1 17 -10 21 -13 5 -13 7 -2
14 20 13 28 11 22 -6z m123 -101 c-3 -3 -12 -4 -19 -1 -8 3 -5 6 6 6 11 1 17
-2 13 -5z m208 -14 c-3 -5 -11 -10 -16 -10 -6 0 -7 5 -4 10 3 6 11 10 16 10 6
0 7 -4 4 -10z"/>
<path d="M1108 1028 c5 -5 16 -8 23 -6 8 3 3 7 -10 11 -17 4 -21 3 -13 -5z"/>
<path d="M2245 1030 c-22 -6 -24 -8 -9 -9 12 0 43 -4 70 -7 46 -5 48 -4 30 10
-21 17 -43 18 -91 6z"/>
<path d="M2450 1013 c0 -26 16 -47 28 -39 6 4 8 14 5 23 -4 10 -2 14 5 9 6 -3
13 -2 16 3 3 5 -4 11 -17 15 -33 9 -37 8 -37 -11z"/>
<path d="M265 1009 c-4 -6 -5 -12 -2 -15 2 -3 7 2 10 11 7 17 1 20 -8 4z"/>
<path d="M2080 1005 c0 -8 2 -15 4 -15 2 0 12 -3 21 -6 15 -6 15 -4 4 15 -16
25 -29 27 -29 6z"/>
<path d="M1280 994 c0 -8 5 -12 10 -9 6 4 8 11 5 16 -9 14 -15 11 -15 -7z"/>
<path d="M2330 990 c0 -6 -5 -8 -12 -4 -7 4 -8 3 -4 -4 9 -16 49 -15 44 0 -6
16 -28 23 -28 8z"/>
<path d="M2070 963 c0 -4 5 -15 10 -23 8 -13 10 -13 10 2 0 9 -4 20 -10 23 -5
3 -10 3 -10 -2z"/>
<path d="M1031 940 c15 -32 59 -77 59 -61 0 7 -16 29 -36 49 -29 30 -33 32
-23 12z"/>
<path d="M2340 946 c0 -9 7 -16 16 -16 9 0 14 5 12 12 -6 18 -28 21 -28 4z"/>
<path d="M1246 923 c-8 -9 14 -33 30 -33 8 0 14 3 14 8 0 11 -37 32 -44 25z"/>
<path d="M1110 910 c0 -5 5 -10 10 -10 6 0 10 5 10 10 0 6 -4 10 -10 10 -5 0
-10 -4 -10 -10z"/>
<path d="M2340 911 c0 -5 7 -11 15 -15 8 -3 15 -1 15 3 0 5 -7 11 -15 15 -8 3
-15 1 -15 -3z"/>
<path d="M70 895 c-7 -9 -8 -15 -2 -15 5 0 12 7 16 15 3 8 4 15 2 15 -2 0 -9
-7 -16 -15z"/>
<path d="M2380 900 c0 -5 5 -10 11 -10 5 0 7 5 4 10 -3 6 -8 10 -11 10 -2 0
-4 -4 -4 -10z"/>
<path d="M368 893 c6 -2 18 -2 25 0 6 3 1 5 -13 5 -14 0 -19 -2 -12 -5z"/>
<path d="M1985 890 c-4 -6 -4 -10 -1 -10 2 0 11 -3 20 -6 9 -3 16 -2 16 4 0
14 -28 23 -35 12z"/>
<path d="M100 875 c-7 -9 -8 -15 -2 -15 5 0 12 7 16 15 3 8 4 15 2 15 -2 0 -9
-7 -16 -15z"/>
<path d="M240 879 c0 -5 5 -7 10 -4 6 3 10 8 10 11 0 2 -4 4 -10 4 -5 0 -10
-5 -10 -11z"/>
<path d="M1350 881 c0 -6 -8 -11 -17 -12 -12 0 -13 -2 -5 -6 7 -3 19 1 27 7
12 10 15 8 16 -11 1 -13 1 -31 0 -40 -2 -18 26 -45 36 -36 3 4 1 12 -5 19 -6
7 -12 29 -14 48 -2 24 -9 36 -20 38 -10 2 -18 -1 -18 -7z"/>
<path d="M2265 880 c3 -5 14 -10 24 -10 10 0 28 -13 41 -30 26 -35 40 -38 40
-11 0 11 6 22 13 24 6 3 0 6 -14 6 -15 1 -40 8 -55 16 -33 17 -58 20 -49 5z"/>
<path d="M2500 854 c0 -11 4 -25 9 -33 7 -11 14 -9 35 13 24 24 25 26 7 26
-11 0 -26 3 -35 6 -11 4 -16 0 -16 -12z"/>
<path d="M1780 855 c0 -22 17 -34 38 -28 25 6 21 23 -6 19 -9 -2 -20 2 -24 8
-5 6 -8 7 -8 1z"/>
<path d="M1282 820 c1 -17 7 -29 13 -27 15 5 13 57 -2 57 -9 0 -12 -11 -11
-30z"/>
<path d="M1850 836 c0 -2 8 -10 18 -17 15 -13 16 -12 3 4 -13 16 -21 21 -21
13z"/>
<path d="M1722 814 c-12 -8 -26 -13 -30 -10 -5 3 -21 -2 -36 -9 -16 -8 -32
-12 -37 -9 -6 3 -21 -2 -35 -10 -20 -14 -22 -20 -14 -35 10 -19 50 -19 50 0 0
4 19 13 43 19 23 6 56 16 73 22 21 7 48 8 87 1 31 -6 57 -6 57 -1 0 4 -12 8
-26 8 -22 0 -25 2 -14 15 15 18 7 19 -20 3 -17 -11 -22 -10 -30 1 -7 12 -13
13 -36 2 -24 -11 -26 -10 -14 3 16 20 10 20 -18 0z"/>
<path d="M1227 803 c-10 -9 -9 -41 1 -47 5 -3 9 8 9 24 0 33 -1 33 -10 23z"/>
<path d="M2244 797 c3 -20 23 -43 31 -35 3 3 -3 16 -14 29 -16 19 -19 20 -17
6z"/>
<path d="M338 765 c-3 -24 1 -36 10 -40 8 -3 17 -3 20 0 3 3 0 5 -7 5 -9 0
-12 11 -9 35 2 19 1 35 -3 35 -4 0 -9 -16 -11 -35z"/>
<path d="M1332 768 c-28 -43 -19 -49 18 -11 27 27 30 43 9 43 -4 0 -16 -15
-27 -32z"/>
<path d="M893 783 c9 -2 23 -2 30 0 6 3 -1 5 -18 5 -16 0 -22 -2 -12 -5z"/>
<path d="M1192 778 c-17 -17 -15 -45 3 -52 8 -3 15 -17 15 -31 0 -15 4 -24 9
-20 6 3 5 18 -1 38 -6 17 -10 42 -10 55 0 26 0 26 -16 10z"/>
<path d="M2330 775 c0 -8 -9 -24 -20 -35 -11 -11 -20 -26 -20 -34 0 -8 -4 -17
-8 -20 -12 -7 -9 -179 3 -183 6 -2 11 29 12 77 2 45 8 90 14 101 6 11 8 27 5
35 -3 8 1 14 9 14 8 0 15 3 16 8 0 4 2 17 5 30 2 12 -1 22 -6 22 -6 0 -10 -7
-10 -15z"/>
<path d="M2607 773 c-15 -14 -6 -33 16 -32 16 1 18 2 5 6 -10 2 -18 9 -18 15
0 5 7 7 16 4 8 -3 12 -2 9 4 -7 12 -19 13 -28 3z"/>
<path d="M40 760 c19 -13 30 -13 30 0 0 6 -10 10 -22 10 -19 0 -20 -2 -8 -10z"/>
<path d="M90 757 c0 -8 7 -14 15 -14 11 0 12 4 4 14 -6 7 -13 13 -15 13 -2 0
-4 -6 -4 -13z"/>
<path d="M1808 763 c7 -3 16 -2 19 1 4 3 -2 6 -13 5 -11 0 -14 -3 -6 -6z"/>
<path d="M2175 740 c-3 -5 -1 -10 4 -10 6 0 11 5 11 10 0 6 -2 10 -4 10 -3 0
-8 -4 -11 -10z"/>
<path d="M400 730 c0 -5 7 -7 15 -4 8 4 15 8 15 10 0 2 -7 4 -15 4 -8 0 -15
-4 -15 -10z"/>
<path d="M1480 702 l-24 -23 28 11 29 11 -26 -33 c-14 -18 -30 -32 -36 -31 -6
2 -15 -15 -21 -37 -6 -22 -14 -40 -19 -40 -9 0 -35 -51 -33 -62 1 -5 -2 -8 -6
-8 -8 0 -14 -26 -16 -79 -1 -22 4 -36 14 -39 12 -4 13 -2 4 9 -13 17 -8 83 6
87 6 2 10 11 10 20 1 22 24 52 39 52 7 0 9 5 6 10 -3 6 -2 10 3 10 6 0 14 13
20 28 8 23 73 88 115 114 23 14 -7 30 -36 19 -14 -6 -27 -7 -29 -3 -2 4 -14
-3 -28 -16z"/>
<path d="M2610 721 c0 -6 4 -13 10 -16 6 -3 7 1 4 9 -7 18 -14 21 -14 7z"/>
<path d="M455 700 c2 -27 15 -38 15 -12 0 11 -4 23 -8 26 -5 3 -8 -4 -7 -14z"/>
<path d="M1070 695 c0 -14 2 -25 4 -25 2 0 6 11 8 25 3 14 1 25 -3 25 -5 0 -9
-11 -9 -25z"/>
<path d="M835 700 c-8 -13 -1 -24 14 -19 6 3 7 10 2 18 -6 10 -10 10 -16 1z"/>
<path d="M2109 687 c-33 -29 -54 -57 -42 -57 5 0 24 18 42 40 37 46 37 49 0
17z"/>
<path d="M1180 681 c0 -12 5 -21 10 -21 6 0 10 6 10 14 0 8 -4 18 -10 21 -5 3
-10 -3 -10 -14z"/>
<path d="M2550 681 c0 -30 19 -36 40 -13 18 20 18 20 -3 26 -33 9 -37 8 -37
-13z"/>
<path d="M105 680 c-19 -8 -19 -9 3 -9 12 -1 22 4 22 9 0 6 -1 10 -2 9 -2 0
-12 -4 -23 -9z"/>
<path d="M2103 640 c-25 -28 -30 -39 -21 -48 7 -7 9 -12 5 -12 -3 0 0 -17 7
-37 7 -21 11 -43 9 -49 -2 -6 3 -17 12 -24 8 -7 15 -21 15 -32 0 -16 3 -18 14
-9 17 14 9 64 -9 57 -8 -3 -12 2 -10 12 1 9 -2 20 -7 23 -4 3 -10 25 -12 50
-3 32 1 51 16 72 29 41 18 39 -19 -3z"/>
<path d="M1140 634 c0 -9 12 -13 40 -11 52 3 52 22 0 23 -27 1 -40 -3 -40 -12z"/>
<path d="M2570 619 c0 -5 5 -7 10 -4 6 3 10 8 10 11 0 2 -4 4 -10 4 -5 0 -10
-5 -10 -11z"/>
<path d="M1235 610 c3 -5 8 -10 11 -10 2 0 4 5 4 10 0 6 -5 10 -11 10 -5 0 -7
-4 -4 -10z"/>
<path d="M66 595 c4 -9 0 -15 -7 -15 -10 0 -11 -3 -3 -8 7 -4 14 -16 17 -27 2
-11 5 -1 6 23 0 23 -3 42 -9 42 -5 0 -7 -7 -4 -15z"/>
<path d="M10 590 c-8 -5 -12 -11 -10 -14 3 -2 14 2 24 10 22 15 10 19 -14 4z"/>
<path d="M190 590 c0 -5 5 -10 10 -10 6 0 10 5 10 10 0 6 -4 10 -10 10 -5 0
-10 -4 -10 -10z"/>
<path d="M195 560 c-3 -5 -1 -10 4 -10 6 0 11 5 11 10 0 6 -2 10 -4 10 -3 0
-8 -4 -11 -10z"/>
<path d="M320 550 c0 -5 5 -10 11 -10 5 0 7 5 4 10 -3 6 -8 10 -11 10 -2 0 -4
-4 -4 -10z"/>
<path d="M385 550 c3 -5 8 -10 11 -10 2 0 4 5 4 10 0 6 -5 10 -11 10 -5 0 -7
-4 -4 -10z"/>
<path d="M1770 538 c0 -18 2 -19 18 -7 9 7 18 14 20 15 1 1 -6 4 -18 7 -15 4
-20 0 -20 -15z"/>
<path d="M1312 520 c0 -14 2 -19 5 -12 2 6 2 18 0 25 -3 6 -5 1 -5 -13z"/>
<path d="M2604 504 c10 -40 13 -41 37 -15 24 26 24 27 -15 37 -28 7 -29 6 -22
-22z"/>
<path d="M55 510 c3 -5 8 -10 11 -10 2 0 4 5 4 10 0 6 -5 10 -11 10 -5 0 -7
-4 -4 -10z"/>
<path d="M2260 493 c0 -7 5 -15 10 -18 6 -3 10 -11 10 -17 0 -7 -6 -6 -15 2
-13 10 -15 9 -15 -10 0 -24 18 -23 34 3 8 13 6 21 -7 34 -9 10 -17 12 -17 6z"/>
<path d="M183 476 c3 -7 0 -19 -6 -25 -8 -8 -8 -11 1 -11 7 0 12 3 13 8 0 4 2
15 4 25 2 9 -1 17 -7 17 -6 0 -8 -6 -5 -14z"/>
<path d="M380 469 c0 -11 4 -18 10 -14 5 3 7 12 3 20 -7 21 -13 19 -13 -6z"/>
<path d="M1140 460 c0 -5 5 -10 11 -10 5 0 7 5 4 10 -3 6 -8 10 -11 10 -2 0
-4 -4 -4 -10z"/>
<path d="M301 434 c0 -11 3 -14 6 -6 3 7 2 16 -1 19 -3 4 -6 -2 -5 -13z"/>
<path d="M1720 436 c0 -2 7 -9 15 -16 13 -11 14 -10 9 4 -5 14 -24 23 -24 12z"/>
<path d="M2166 424 c-3 -9 -6 -17 -6 -18 0 -1 18 0 40 2 22 2 37 8 34 14 -3 5
-13 8 -22 6 -10 -1 -22 1 -28 5 -7 4 -15 0 -18 -9z"/>
<path d="M25 410 c-4 -6 -11 -8 -16 -5 -5 4 -9 0 -9 -8 0 -13 4 -13 25 -4 14
7 25 15 25 20 0 11 -18 9 -25 -3z"/>
<path d="M170 400 c0 -11 2 -20 4 -20 2 0 6 9 9 20 3 11 1 20 -4 20 -5 0 -9
-9 -9 -20z"/>
<path d="M2130 400 c0 -5 5 -10 11 -10 5 0 7 5 4 10 -3 6 -8 10 -11 10 -2 0
-4 -4 -4 -10z"/>
<path d="M291 384 c0 -11 3 -14 6 -6 3 7 2 16 -1 19 -3 4 -6 -2 -5 -13z"/>
<path d="M2420 379 c0 -5 5 -7 10 -4 6 3 10 8 10 11 0 2 -4 4 -10 4 -5 0 -10
-5 -10 -11z"/>
<path d="M2610 380 c0 -5 5 -10 10 -10 6 0 10 5 10 10 0 6 -4 10 -10 10 -5 0
-10 -4 -10 -10z"/>
<path d="M50 370 c0 -5 5 -10 11 -10 5 0 7 5 4 10 -3 6 -8 10 -11 10 -2 0 -4
-4 -4 -10z"/>
<path d="M158 315 c-6 -49 -4 -64 8 -53 3 3 4 28 2 54 l-3 49 -7 -50z"/>
<path d="M300 350 c0 -5 5 -10 11 -10 5 0 7 5 4 10 -3 6 -8 10 -11 10 -2 0 -4
-4 -4 -10z"/>
<path d="M1184 341 c20 -22 26 -25 26 -13 0 4 -10 13 -22 21 -23 14 -23 14 -4
-8z"/>
<path d="M2255 340 c-18 -8 -17 -9 8 -9 15 -1 27 4 27 9 0 12 -8 12 -35 0z"/>
<path d="M2660 315 c0 -36 28 -44 51 -14 18 24 18 24 -4 31 -39 11 -47 8 -47
-17z"/>
<path d="M2511 314 c0 -11 3 -14 6 -6 3 7 2 16 -1 19 -3 4 -6 -2 -5 -13z"/>
<path d="M1243 305 c0 -6 17 -9 39 -7 22 3 37 7 33 10 -10 10 -72 8 -72 -3z"/>
<path d="M1415 310 c3 -5 8 -10 11 -10 2 0 4 5 4 10 0 6 -5 10 -11 10 -5 0 -7
-4 -4 -10z"/>
<path d="M1440 297 c0 -10 98 -7 125 4 12 5 -10 7 -52 6 -40 -1 -73 -6 -73
-10z"/>
<path d="M12 284 c10 -10 20 -16 22 -13 3 3 -5 11 -17 18 -21 13 -21 12 -5 -5z"/>
<path d="M70 289 c0 -5 5 -7 10 -4 6 3 10 8 10 11 0 2 -4 4 -10 4 -5 0 -10 -5
-10 -11z"/>
<path d="M114 275 c-11 -8 -14 -15 -6 -15 18 0 15 -27 -5 -39 -17 -10 -17 -10
1 -11 14 0 16 -4 10 -17 -4 -10 -8 -41 -8 -70 -1 -28 -4 -54 -8 -58 -4 -4 -27
-8 -53 -9 -34 -1 -45 -5 -43 -16 2 -11 18 -16 54 -18 49 -3 52 -2 57 25 8 40
27 243 23 243 -1 0 -11 -7 -22 -15z"/>
<path d="M2270 259 c0 -5 5 -7 10 -4 6 3 10 8 10 11 0 2 -4 4 -10 4 -5 0 -10
-5 -10 -11z"/>
<path d="M1135 250 c4 -6 11 -8 16 -5 14 9 11 15 -7 15 -8 0 -12 -5 -9 -10z"/>
<path d="M160 238 c0 -7 -3 -23 -6 -35 -4 -13 -2 -23 2 -23 5 0 10 16 11 35 2
19 1 35 -2 35 -3 0 -5 -6 -5 -12z"/>
<path d="M2670 232 c0 -4 9 -8 19 -8 11 0 17 4 15 8 -3 4 -12 8 -20 8 -8 0
-14 -4 -14 -8z"/>
<path d="M275 140 c3 -5 10 -10 16 -10 5 0 9 5 9 10 0 6 -7 10 -16 10 -8 0
-12 -4 -9 -10z"/>
<path d="M2720 115 c0 -12 6 -28 14 -34 11 -10 17 -7 30 10 18 27 14 35 -19
41 -21 4 -25 1 -25 -17z"/>
<path d="M151 114 c0 -11 3 -14 6 -6 3 7 2 16 -1 19 -3 4 -6 -2 -5 -13z"/>
<path d="M1738 113 c7 -3 16 -2 19 1 4 3 -2 6 -13 5 -11 0 -14 -3 -6 -6z"/>
<path d="M75 100 c-3 -5 1 -10 9 -10 9 0 16 5 16 10 0 6 -4 10 -9 10 -6 0 -13
-4 -16 -10z"/>
<path d="M371 84 c0 -11 3 -14 6 -6 3 7 2 16 -1 19 -3 4 -6 -2 -5 -13z"/>
<path d="M1680 79 c0 -5 5 -7 10 -4 6 3 10 8 10 11 0 2 -4 4 -10 4 -5 0 -10
-5 -10 -11z"/>
<path d="M130 61 c0 -12 5 -21 10 -21 6 0 10 6 10 14 0 8 -4 18 -10 21 -5 3
-10 -3 -10 -14z"/>
</g>
</svg>
